<?xml version="1.0" standalone="no"?>
<!DOCTYPE svg PUBLIC "-//W3C//DTD SVG 20010904//EN"
 "http://www.w3.org/TR/2001/REC-SVG-20010904/DTD/svg10.dtd">
<svg version="1.0" xmlns="http://www.w3.org/2000/svg"
 width="512.000000pt" height="512.000000pt" viewBox="0 0 512.000000 512.000000"
 preserveAspectRatio="xMidYMid meet">
<metadata>
Created by potrace 1.11, written by Peter Selinger 2001-2013
</metadata>
<g transform="translate(0.000000,512.000000) scale(0.100000,-0.100000)"
fill="#000000" stroke="none">
<path d="M2375 5114 c-22 -2 -94 -11 -160 -20 -811 -106 -1540 -618 -1921
-1348 -140 -269 -220 -518 -271 -846 -26 -173 -24 -528 5 -715 44 -280 114
-500 241 -760 336 -685 981 -1196 1716 -1359 236 -52 315 -61 580 -60 268 0
386 13 610 68 915 224 1647 956 1871 1871 54 220 67 343 68 605 1 260 -9 360
-59 580 -143 638 -535 1201 -1092 1570 -123 82 -381 212 -524 264 -139 51
-347 104 -501 127 -127 19 -464 33 -563 23z m1695 -1679 l-455 -455 -735 -2
-735 -3 -3 -735 -2 -735 -455 -455 -455 -455 0 1648 0 1647 1647 0 1648 0
-455 -455z m-700 -1205 l0 -500 -502 0 -503 0 500 500 c275 275 501 500 502
500 2 0 3 -225 3 -500z"/>
</g>
</svg>
